<svg width="138" height="138" viewBox="0 0 138 138" fill="none" xmlns="http://www.w3.org/2000/svg">
<circle cx="69" cy="69" r="69" fill="#00A3FF"/>
<path d="M110.916 58.9097C111.151 58.3752 111.279 57.7995 111.291 57.2156C111.304 56.6318 111.201 56.0512 110.989 55.5071C110.777 54.963 110.46 54.466 110.055 54.0446C109.651 53.6233 109.167 53.2857 108.633 53.0514L50.4277 27.4279C45.9983 25.4781 40.5451 27.6549 38.6532 32.0665L28.8151 55.0101C27.8895 57.1804 27.8628 59.6292 28.7408 61.8191C29.6188 64.0091 31.3297 65.7613 33.4982 66.6911L60.377 78.2119L54.857 92.0119H35.6127V78.6571H26.7095V114.27H35.6127V100.915H54.857C58.5207 100.915 61.7659 98.716 63.1192 95.315L68.5591 81.7198L91.7297 91.6469C92.8088 92.1099 94.0271 92.1279 95.1194 91.6968C96.2116 91.2657 97.0893 90.4206 97.5613 89.3454L98.9503 86.1847L106.522 89.2118L115.426 66.9538L108.588 64.2249L110.916 58.9097ZM91.1777 81.7287L37.0061 58.5135L46.8352 35.5788L100.976 59.4127L91.1777 81.7287V81.7287Z" fill="white"/>
</svg>
